P3
4 4 
255
254 103 168 56 105 210 79 222 224 255 218 88
175 106 119 222 176 64 5 99 102 148 15 29
254 103 168 56 105 210 79 222 224 255 218 88
175 106 119 222 176 64 5 99 102 148 15 29